<svg xmlns="http://www.w3.org/2000/svg" data-name="Layer 1" width="887.8728637695312" height="569.6800537109375" style=""><rect id="backgroundrect" width="100%" height="100%" x="0" y="0" fill="none" stroke="none"/><title>proud_coder</title><g class="currentLayer" style=""><title>Layer 1</title><rect x="276.411376953125" y="0.3466399908065796" width="611.4614868164062" height="391.60711669921875" fill="#e6e6e6" id="svg_1"/><rect x="293.8959655761719" y="49.46393966674805" width="576.4922485351562" height="319.3222961425781" fill="#fff" id="svg_2"/><rect x="276.1502990722656" width="611.4614868164062" height="25.97711944580078" fill="#ffff77" id="svg_3" class="" fill-opacity="1"/><circle cx="295.45440673828125" cy="13.280879974365234" r="4.81466007232666" fill="#fff" id="svg_4"/><circle cx="313.7296447753906" cy="13.280879974365234" r="4.81466007232666" fill="#fff" id="svg_5"/><circle cx="332.0048828125" cy="13.280879974365234" r="4.81466007232666" fill="#fff" id="svg_6"/><path d="M707.2668666259766,79.3726021142578 H519.5797266259766 a1.6658700000000002,1.6658700000000002 0 0 1 0,-3.3031800000000002 H707.2668666259766 a1.6658700000000002,1.6658700000000002 0 0 1 0,3.3031800000000002 z" fill="#ccc" id="svg_7"/><path d="M577.2182166259765,97.5400421142578 H457.8862766259765 a1.6658700000000002,1.6658700000000002 0 0 1 0,-3.30317 H577.2182166259765 a1.6658700000000002,1.6658700000000002 0 0 1 0,3.30317 z" fill="#ccc" id="svg_8"/><path d="M707.2668666259766,97.8703721142578 H587.9349166259766 a1.6658700000000002,1.6658700000000002 0 0 1 0,-3.30317 h119.332 a1.6658700000000002,1.6658700000000002 0 0 1 0,3.30317 z" fill="#ccc" id="svg_9"/><path d="M577.5078566259766,115.70751211425784 H458.1759166259766 a1.6658700000000002,1.6658700000000002 0 0 1 0,-3.30317 H577.5078566259766 a1.6658700000000002,1.6658700000000002 0 0 1 0,3.30317 z" fill="#ccc" id="svg_10"/><path d="M577.7974966259766,133.8749721142578 H458.46555662597655 a1.6658700000000002,1.6658700000000002 0 0 1 0,-3.30317 H577.7974966259766 a1.6658700000000002,1.6658700000000002 0 0 1 0,3.30317 z" fill="#ccc" id="svg_11"/><path d="M631.9602966259765,115.70751211425784 H597.7827066259765 a1.6658700000000002,1.6658700000000002 0 0 1 0,-3.30317 h34.17759 a1.6658700000000002,1.6658700000000002 0 0 1 0,3.30317 z" fill="#ccc" id="svg_12"/><path d="M631.9602966259765,133.54465211425781 H597.7827066259765 a1.6658700000000002,1.6658700000000002 0 0 1 0,-3.30317 h34.17759 a1.6658700000000002,1.6658700000000002 0 0 1 0,3.30317 z" fill="#ccc" id="svg_13"/><path d="M689.3091466259766,133.54465211425781 h-34.1776 a1.6658700000000002,1.6658700000000002 0 0 1 0,-3.30317 h34.1776 a1.6658700000000002,1.6658700000000002 0 0 1 0,3.30317 z" fill="#ccc" id="svg_14"/><path d="M491.1949466259765,79.3726021142578 h-34.1776 a1.6658700000000002,1.6658700000000002 0 0 1 0,-3.3031800000000002 h34.1776 a1.6658700000000002,1.6658700000000002 0 0 1 0,3.3031800000000002 z" fill="#ccc" id="svg_15"/><path d="M576.7837566259766,287.6783921142578 H457.4518066259766 a1.6658700000000002,1.6658700000000002 0 0 1 0,-3.30317 h119.332 a1.6658700000000002,1.6658700000000002 0 0 1 0,3.30317 z" fill="#ccc" id="svg_16"/><path d="M576.2044766259766,324.0133121142578 H456.87252662597655 a1.6658700000000002,1.6658700000000002 0 0 1 0,-3.3031800000000002 h119.332 a1.6658700000000002,1.6658700000000002 0 0 1 0,3.3031800000000002 z" fill="#ccc" id="svg_17"/><path d="M576.4941166259765,342.1807721142578 H457.1621666259765 a1.6658700000000002,1.6658700000000002 0 0 1 0,-3.3031800000000002 h119.332 a1.6658700000000002,1.6658700000000002 0 0 1 0,3.3031800000000002 z" fill="#ccc" id="svg_18"/><path d="M627.4708666259766,324.3436321142578 H593.2932766259765 a1.6658700000000002,1.6658700000000002 0 0 1 0,-3.3031800000000002 h34.17759 a1.6658700000000002,1.6658700000000002 0 0 1 0,3.3031800000000002 z" fill="#ccc" id="svg_19"/><path d="M627.4708666259766,342.1807721142578 H593.2932766259765 a1.6658700000000002,1.6658700000000002 0 0 1 0,-3.3031800000000002 h34.17759 a1.6658700000000002,1.6658700000000002 0 0 1 0,3.3031800000000002 z" fill="#ccc" id="svg_20"/><path d="M684.8197166259765,324.3436321142578 H650.6421166259765 a1.6658700000000002,1.6658700000000002 0 0 1 0,-3.3031800000000002 h34.1776 a1.6658700000000002,1.6658700000000002 0 0 1 0,3.3031800000000002 z" fill="#ccc" id="svg_21"/><path d="M707.4116866259766,305.8458521142578 H519.7245466259766 a1.6658700000000002,1.6658700000000002 0 0 1 0,-3.30317 H707.4116866259766 a1.6658700000000002,1.6658700000000002 0 0 1 0,3.30317 z" fill="#ccc" id="svg_22"/><path d="M491.3397666259766,305.8458521142578 h-34.1776 a1.6658700000000002,1.6658700000000002 0 0 1 0,-3.30317 h34.1776 a1.6658700000000002,1.6658700000000002 0 0 1 0,3.30317 z" fill="#ccc" id="svg_23"/><polygon points="547.965 163.221 501.622 208.985 547.965 254.748 558.392 244.321 523.345 209.274 558.681 173.938 547.965 163.221" fill="#e6e6e6" id="svg_24"/><polygon points="616.32 163.221 662.662 208.985 616.32 254.748 605.893 244.321 640.939 209.274 605.603 173.938 616.32 163.221" fill="#e6e6e6" id="svg_25"/><polygon points="547.965 163.221 501.622 208.985 547.965 254.748 558.392 244.321 523.345 209.274 558.681 173.938 547.965 163.221" fill="#ffff77" id="svg_26" class="" fill-opacity="1"/><polygon points="616.32 163.221 662.662 208.985 616.32 254.748 605.893 244.321 640.939 209.274 605.603 173.938 616.32 163.221" fill="#ffff77" id="svg_27" class="" fill-opacity="1"/><path d="M470.6029166259766,546.0354421142578 c14.41965,19.311 44.352,21.34353 44.352,21.34353 s6.55352,-29.2768 -7.86613,-48.5878 s-44.352,-21.34353 -44.352,-21.34353 S456.18326662597656,526.7244321142579 470.6029166259766,546.0354421142578 z" fill="#e6e6e6" id="svg_28"/><path d="M544.0596466259766,553.2950421142579 c-9.5151,12.742750000000001 -29.26658,14.08395 -29.26658,14.08395 s-4.32447,-19.31887 5.19062,-32.06162 s29.26658,-14.084 29.26658,-14.084 S553.5747366259766,540.5522621142578 544.0596466259766,553.2950421142579 z" fill="#e6e6e6" id="svg_29"/><polygon points="149.825 460.994 149.825 511.12 135.503 511.12 125.956 458.607 149.825 460.994" fill="#ffb9b9" id="svg_30"/><polygon points="36.445 460.994 36.445 511.12 22.124 511.12 12.576 458.607 36.445 460.994" fill="#ffb9b9" id="svg_31"/><path d="M111.99767662597657,91.4822721142578 s-23.014,-16.54132 -25.89076,-8.63026 S103.36741662597655,105.14684211425782 103.36741662597655,105.14684211425782 z" fill="#ffb9b9" id="svg_32"/><path d="M30.369856625976553,112.69831211425782 c0,28.59815 12.312850000000001,29.4867 32.37127,29.4867 s40.2667,-0.8885500000000001 40.2667,-29.4867 s-16.26056,-51.78152 -36.319,-51.78152 S30.369856625976553,84.10016211425781 30.369856625976553,112.69831211425782 z" fill="#2f2e41" id="svg_33"/><path d="M79.63422662597657,112.33872211425779 s-2.87676,21.57563 10.78781,23.014 s-44.58964,5.7535 -44.58964,5.7535 s15.10294,-13.66457 7.19188,-24.45239 S79.63422662597657,112.33872211425779 79.63422662597657,112.33872211425779 z" fill="#ffb9b9" id="svg_34"/><path d="M152.27219662597656,497.82340211425776 l5.03431,42.43208 s25.17158,30.92508 9.34944,28.76751 s-25.89076,0.45876 -25.89076,-2.418 s-0.37200000000000005,-13.155 -2.52959,-13.155 s-3.9431000000000003,16.23013 -3.9431000000000003,16.23013 s-6.47269,-0.4898100000000001 -7.19188,-1.209 s-1.4383700000000001,-41.88017 -1.4383700000000001,-41.88017 s-2.15757,-12.22619 2.15756,-17.9797 s3.59594,-10.78781 3.59594,-10.78781 z" fill="#2f2e41" id="svg_35"/><path d="M37.69896662597657,497.35681211425776 l5.03431,42.43208 s25.17158,30.92508 9.349450000000001,28.76751 s-25.89077,0.45876 -25.89077,-2.418 s-0.37200000000000005,-13.155 -2.52958,-13.155 s-3.94311,16.23013 -3.94311,16.23013 s-6.47269,-0.4898100000000001 -7.19188,-1.209 s-1.4383700000000001,-41.88017 -1.4383700000000001,-41.88017 s-2.15756,-12.22619 2.15756,-17.9797 s3.59594,-10.78781 3.59594,-10.78781 z" fill="#2f2e41" id="svg_36"/><path d="M114.87441662597655,245.3884721142578 s23.014,65.44609 24.45239,79.82985 s-1.43838,63.28853 -1.43838,63.28853 s20.85645,84.49856 16.54132,85.21775 s-28.3456,4.12889 -29.06478,0.533 s-3.28315,-9.16321 -2.564,-11.32077 S120.64341662597656,452.8681521142578 120.64341662597656,448.5530421142578 s-10.08416,-26.96353 -9.365,-30.55947 s-12.22619,-56.81584 -14.38376,-61.131 s-7.91106,-34.521 -7.91106,-34.521 s-32.36346,88.46011 -33.08264,90.61767 s-3.59594,5.75351 -2.15757,6.47269 s-2.15756,5.75351 -2.15756,5.75351 s-7.45231,29.84028 -7.45231,31.27866 s1.43838,17.71926 -1.4383700000000001,18.43845 s-32.26142,0.6732800000000001 -33.6998,-4.361 s15.26134,-63.33577 15.26134,-63.33577 s12.2262,-36.67858 8.63026,-46.028 s3.59594,-65.4461 6.47269,-69.76122 s3.59594,-30.20589 3.59594,-30.20589 z" fill="#2f2e41" id="svg_37"/><circle cx="67.0484390258789" cy="101.19129943847656" r="23.014009475708008" fill="#ffb9b9" id="svg_38"/><path d="M79.63422662597657,130.3184121142578 s-25.89077,0.7191900000000001 -27.32914,-1.4383700000000001 s-37.39777,5.03431 -37.39777,19.41807 s20.85645,70.48041 20.85645,70.48041 s7.91106,40.27451 5.7535,44.58964 s79.82985,-9.34944 77.67229,-16.54132 s-14.38376,-23.014 1.4383700000000001,-36.67858 s22.29483,-28.04832 22.29483,-28.04832 l-18.69889,-49.624 s-18.69888,-2.87676 -23.014,0 S79.63422662597657,130.3184121142578 79.63422662597657,130.3184121142578 z" fill="#ffff77" id="svg_39" class="" fill-opacity="1"/><path d="M137.88841662597656,185.6958821142578 l5.03432,-3.59594 s46.7472,-48.90478 34.521,-58.25422 S147.23787662597658,105.86604211425782 138.60762662597654,105.14684211425782 s-15.82213,-7.19188 -15.82213,-7.19188 s-9.349450000000001,-16.54132 -16.54132,-5.7535 s-15.10295,14.38375 -5.03432,17.97969 s16.54132,2.15757 21.57564,5.75351 s24.45238,9.34944 15.82213,11.507 a77.19464,77.19464 0 0 0 -14.38376,5.03432 L114.87441662597655,149.0173021142578 z" fill="#ffff77" id="svg_40" class="" fill-opacity="1"/><path d="M56.62020662597655,307.2386221142578 s18.69889,27.32914 5.03432,25.89076 s-20.13726,-20.13726 -20.13726,-20.13726 z" fill="#ffb9b9" id="svg_41"/><path d="M19.941626625976568,144.7021721142578 l-5.03431,3.59594 s-16.54132,90.61767 0,114.35086 s17.9797,22.29483 17.9797,22.29483 s2.8767500000000004,-2.15757 4.31512,12.22619 s-0.71918,20.13726 3.59594,20.13726 s23.7332,-4.31513 22.29483,-7.9110700000000005 s-10.78782,-24.45238 -11.507,-29.4867 s-4.31513,-16.54132 -5.7535,-23.014 s6.47269,-10.06863 2.8767500000000004,-23.7332 s-8.63026,-38.11695 -8.63026,-43.15127 S19.941626625976568,144.7021721142578 19.941626625976568,144.7021721142578 z" fill="#ffff77" id="svg_42" class="selected" fill-opacity="1"/><path d="M44.753616625976576,80.69445211425781 c0,7.74533 10.62571,14.02416 23.73319,14.02416 s25.17158,4.1494 25.17158,-3.59594 s-12.06409,-24.45238 -25.17158,-24.45238 S44.753616625976576,72.94912211425782 44.753616625976576,80.69445211425781 z" fill="#2f2e41" id="svg_43"/><path d="M102.79227662597657,117.5520421142578 s0.9687200000000001,26.07138 -24.939,24.633 s3.50113,-22.2854 3.50113,-22.2854 z" fill="#2f2e41" id="svg_44"/><rect y="567.3789672851562" width="702.905517578125" height="2.24072003364563" fill="#3f3d56" id="svg_45"/></g></svg>