<svg xmlns="http://www.w3.org/2000/svg" data-name="Layer 1" width="888" height="594.64886"><rect id="backgroundrect" width="100%" height="100%" x="0" y="0" fill="none" stroke="none"/><title>conceptual_idea</title><g class="currentLayer" style=""><title>Layer 1</title><path d="M583.11132,582.1484323730468 c-12.202,-2.7153400000000003 -27.05187,-14.00842 -23.87268,-29.531 c1.5767200000000001,-7.69836 7.62838,-12.6817 13.90318,-15.904 c8.6794,-4.45709 18.56423,-6.13665 28.09008,-6.561 c10.98748,-0.4894200000000001 21.9627,0.7446200000000002 32.8681,2.04968 c10.7659,1.28837 21.53272,2.442 32.34676,3.14634 a503.435,503.435 0 0 0 63.99185,0.07744000000000001 a499.57888,499.57888 0 0 0 62.25906,-7.80089 q15.31254,-2.91137 30.44155,-6.83108 a238.92144,238.92144 0 0 0 27.96182,-8.61034 c11.99129,-4.74314 31.49205,-13.97293 29.90194,-31.06647 c-0.8431200000000001,-9.06349 -7.32153,-16.3023 -13.85611,-21.34551 c-7.90114,-6.09789 -17.04378,-10.11 -25.99834,-14.00607 c-41.65158,-18.12251 -83.38442,-36.02985 -125.0765,-54.04324 c-9.73046,-4.20412 -19.52564,-8.29559 -28.96912,-13.22228 c-8.8414,-4.61259 -17.64145,-9.97062 -24.75664,-17.37915 c-6.21454,-6.47077 -11.76775,-15.15763 -11.57183,-24.86819 c0.16247000000000003,-8.0532 4.61059,-14.887 10.05842,-19.99436 c13.487729999999999,-12.64488 32.56735,-17.77176 49.81146,-20.45726 c21.424,-3.33646 43.15815,-3.3192 64.59611,-6.541 c17.3099,-2.6014 35.80533,-7.62331 49.88327,-19.39143 c5.39767,-4.51206 10.15957,-10.3195 12.16054,-17.50459 a28.85125,28.85125 0 0 0 -2.50063,-20.7717 c-3.81349,-7.50457 -9.89646,-13.48276 -16.29275,-18.378 a101.37552,101.37552 0 0 0 -24.71107,-13.601750000000001 c-19.01341,-7.46478 -39.007,-11.35145 -58.48286,-17.08 c-9.55137,-2.8094099999999997 -19.1994,-5.8901 -28.06846,-10.71569 c-7.514,-4.08832 -15.69923,-9.599 -19.87965,-17.79384 c-8.62523,-16.90793 11.95169,-26.98483 23.61115,-30.80179 a177.48522,177.48522 0 0 1 24.40246,-5.75556 c1.7581200000000001,-0.31100000000000005 1.01217,-3.20234 -0.7377400000000002,-2.89283 a170.438,170.438 0 0 0 -25.6255,6.1648 c-7.031,2.40679 -14.28557,5.5698 -19.80838,11.01268 c-4.63841,4.57128 -7.52316,11.06681 -6.28679,17.92345 c1.46284,8.11258 7.82165,14.36356 13.79365,18.89126 c7.897320000000001,5.98741 16.90168,9.89758 26.03121,13.085 c9.61507,3.35693 19.43416,5.97312 29.24992,8.5393 c19.61407,5.12779 40.10807,9.69745 57.81427,20.609 c12.386050000000001,7.633 29.2122,21.94455 25.09215,39.68392 c-1.82891,7.8746100000000006 -7.38283,14.03127 -13.376290000000001,18.55958 c-7.24331,5.47262 -15.54106,9.21071 -23.95542,12.00066 c-39.237,13.00983 -82.42,3.70626 -120.64578,21.37631 c-12.997,6.00792 -28.7837,16.94655 -28.91078,34.15759 c-0.06600000000000002,8.94077 4.28393,17.14073 9.66173,23.622 c6.44109,7.76279 14.78185,13.50329 23.26812,18.301 a289.74919,289.74919 0 0 0 27.78564,13.25413 q15.68476,6.78768 31.37637,13.5569 l63.48337,27.42849 l31.54205,13.628 c9.62675,4.15931 19.50071,8.14912 28.25364,14.25477 c7.1668,4.99924 15.634,13.20089 14.90284,23.385 c-0.5806900000000002,8.08792 -7.102,13.924479999999999 -13.06115,17.82674 c-7.7164,5.053 -16.38459,8.32125 -25.00912,11.03708 c-9.9478,3.13252 -20.05918,5.73108 -30.19017,8.06747 a485.73009,485.73009 0 0 1 -63.33944,10.21421 a504.94956,504.94956 0 0 1 -64.34553,1.976 q-16.27819,-0.53959 -32.506,-2.14553 c-11.15154,-1.1066 -22.25537,-2.81141 -33.43569,-3.56776 c-10.1128,-0.6841300000000001 -20.323,-0.5255599999999999 -30.2821,1.6733000000000002 c-8.31563,1.836 -17.10085,5.10858 -23.41311,11.49423 a22.56811,22.56811 0 0 0 -6.55106,17.1739 a27.8328,27.8328 0 0 0 7.6736200000000006,17.01817 a35.86624,35.86624 0 0 0 18.56266,10.26667 c1.7431100000000002,0.3879000000000001 2.4885800000000002,-2.50322 0.7377400000000002,-2.89284 z" fill="#e6e6e6" id="svg_1"/><rect y="584.3944702148438" width="888" height="2.24072003364563" fill="#3f3d56" id="svg_2"/><path d="M813.50138,477.6404323730469 l41.75808,61.91715 l-38.87821,38.87821 l-5.03977,-10.07954 l8.6396,-20.15907 s-1.43993,-18.71914 -6.4797,-23.75891 s-27.35874,-35.27837 -27.35874,-35.27837 z" fill="#ffb8b8" id="svg_3"/><path d="M760.22383,277.4895923730469 s7.91808,12.53226 -8.64115,66.52978 c0,0 77.23943,130.36039 65,139 s-45.3604,27.75973 -54,22 s-71.47567,-200.891 -71.47567,-200.891 z" fill="#2f2e41" id="svg_4"/><path d="M847.69981,528.3980423730469 l12.59942,12.59942 c6.4797,6.4797 10.7995,15.83927 -1.43994,23.75891 s-54.71748,37.43827 -69.11682,28.0787 s17.27921,-17.99917 17.27921,-17.99917 s5.23818,-19.4221 8.01884,-15.1108 s2.78066,12.9509 2.78066,12.9509 z" fill="#2f2e41" id="svg_5"/><path d="M695.42682,511.4788223730469 s-23.03894,42.478 -23.03894,47.51781 s1.43993,19.43911 1.43993,19.43911 l-43.918,10.7995 l-15.1193,-7.19967 l5.03977,-12.9594 s27.35874,-9.35957 33.11847,-27.35874 s12.23944,-36.71831 12.23944,-36.71831 z" fill="#ffb8b8" id="svg_6"/><circle cx="722.0656127929688" cy="58.619659423828125" r="30.238609313964844" fill="#ffb8b8" id="svg_7"/><path d="M714.146,84.53843237304687 l14.43673,41.4809 l31.64115,-14.12216 s-21.599,-33.11847 -21.599,-37.43828 z" fill="#ffb8b8" id="svg_8"/><path d="M709.82615,232.13168237304689 H747.9844 s27.35874,41.758070000000004 11.51947,85.676 c-2.42557,6.72543 -4.83339,16.14617 -7.23666,27.28418 c-5.527,25.61482 -11.02985,60.31216 -16.66911,92.19578 c-7.9212,44.78549 -16.11147,84.01936 -25.01542,84.73168 c-17.99917,1.43993 -53,1.19966 -53,-6 s23.4448,-215.49084 23.4448,-215.49084 l5.03977,-8.6396 l0.95257,-37.63295 a22.699,22.699 0 0 1 22.80631,-22.1243 z" fill="#2f2e41" id="svg_9"/><path d="M672.02789,558.6366523730469 s8.27962,14.03935 6.11972,24.11889 s-5.75973,8.6396 -21.599,10.07953 s-69.83679,1.43994 -69.83679,-8.6396 s42.12268,-23.16931 42.30036,-19.14431 s1.61762,11.94464 -2.7021800000000002,13.38458 s-0.36000000000000004,0.36000000000000004 -0.36000000000000004,0.36000000000000004 z" fill="#2f2e41" id="svg_10"/><path d="M696.04579,318.23737237304687 s-8.65955,50.50214 -27.77418,33.10136 s12.72589,-41.59372 12.72589,-41.59372 z" fill="#ffb8b8" id="svg_11"/><path d="M755.84321,254.63802237304685 a6.064,6.064 0 0 0 6.20784,-0.7348100000000001 a6.36064,6.36064 0 0 0 2.3553100000000002,-4.01169 c3.01995,-17.41063 6.697,-65.67763 8.81487,-90.08453 c2.65753,-30.62576 -10.617,-54.34631 -10.72835,-54.49066 l-7.82278,-10.75633 a6.14011,6.14011 0 0 0 -7.35329,-2.06393 s-24.42227,25.33841 -24.51227,26.31676 c-0.38319000000000003,4.201 -3.28977,13.51063 -18.44,28.66087 c-16.57682,16.576810000000002 -16.66892,31.0447 -16.30191,35.08432 q0.036120000000000006,0.3983900000000001 0.037000000000000005,0.79611 a17.76021,17.76021 0 0 0 0.7300700000000001,5.35646 c6.94337,21.88991 1.50591,48.097 -7.2258000000000004,75.45294 a6.16986,6.16986 0 0 0 2.48681,6.6952 c2.55012,1.73488 -0.508,-0.83936 0.40165,0.27525 c6.01787,7.37391 14.67776,-2.90342 24.58363,-14.11739 c3.45078,-3.90639 7.36209,-8.33411 11.97156,-12.94359 c6.33768,-6.338 18.44739,8.12459 24.07776,8.12459 A26.14578,26.14578 0 0 1 755.84321,254.63802237304685 z" fill="#ffff77" id="svg_12" class="" fill-opacity="1"/><path d="M763.11458,118.82335237304687 s14.276,14.9744 3.4681,31.196 s-11.00389,29.034 -11.00389,29.034 s-15.264,117.87138 -42.54829,109.0874 l-16.51907,33.66615 l-22.0261,-10.77681 l16.63087,-29.46956 s-10.54741,-1.81881 -6.65508,-8.71594 c2.73383,-4.84429 20.49165,-58.71309 30.82023,-90.35064 c4.3769,-13.4069 7.41967,-22.82157 7.41967,-22.82157 S737.00368,112.35493237304689 763.11458,118.82335237304687 z" fill="#ffff77" id="svg_13" class="" fill-opacity="1"/><polygon points="759.864 179.214 744.696 236.253 756.232 174.753 759.864 179.214" opacity="0.2" id="svg_14"/><path d="M689.07435,45.22170237304687 s-5.08368,-39.56352 36.3958,-26.58972 c0,0 29.62491,-5.43573 39.34008,31.6205 l9.83726,38.84407 l-4.79419,-2.60944 l-2.23508,4.88562 l-7.76881,1.96745 l-3.3244700000000003,-6.59844 l-1.6082200000000002,8.013 l-63.63084,6.34346 s28.499,-16.8541 28.95089,-47.06069 l-5.42845,5.73647 z" fill="#2f2e41" id="svg_15"/><path d="M94.61927,3.324432373046875 A3.63286,3.63286 0 0 0 91,6.962682373046874 v294.7235 A3.63254,3.63254 0 0 0 94.61927,305.3244323730469 h420.762 A3.63212,3.63212 0 0 0 519,301.68618237304685 V6.962682373046874 A3.63244,3.63244 0 0 0 515.38122,3.324432373046875 z" fill="#3f3d56" id="svg_16" class=""/><path d="M93.10573,176.53499237304686 c12.8352,-0.03717000000000001 24.95256,4.52447 35.521,11.61767 c11.093,7.44524 20.46845,17.30946 28.70416,27.75616 c9.10107,11.54438 16.89921,24.03566 25.2703,36.10179 c7.73081,11.14323 16.01453,21.97621 25.97813,31.2352 c9.42648,8.75985 20.34374,16.12485 32.65637,20.11911 c1.5,0.48660000000000003 3.01675,0.91657 4.54616,1.3003900000000002 c1.72378,0.43261000000000005 2.45916,-2.22947 0.7340000000000001,-2.66242 c-12.644,-3.17317 -23.94908,-10.04613 -33.66773,-18.61218 c-10.14125,-8.93852 -18.57263,-19.54531 -26.32375,-30.56958 c-8.43932,-12.00309 -16.205,-24.48262 -25.12832,-36.14262 c-8.25624,-10.78839 -17.54089,-20.93207 -28.56923,-28.94838 c-10.23381,-7.43877 -22.08813,-12.73711 -34.79618,-13.77123 c-1.6386800000000001,-0.13335 -3.281,-0.18973000000000004 -4.92495,-0.18500000000000003 a1.3813600000000001,1.3813600000000001 0 0 0 0,2.76106 z" fill="#ffff77" id="svg_17" class="" fill-opacity="1"/><path d="M94.53999999999999,304.0057623730469 c22.57813,-22.83768 53.44392,-33.63314 84.09514,-40.63616 c32.05829,-7.32449 65.13252,-11.25663 95.59206,-24.32381 a133.13368,133.13368 0 0 0 39.4316,-25.418120000000002 a130.83845,130.83845 0 0 0 26.41835,-35.63759 a135.0823,135.0823 0 0 0 12.10163,-87.39118 a149.29305,149.29305 0 0 0 -44.01227,-78.74166 q-4.10151,-3.8555 -8.49293,-7.38246 c-1.3713600000000001,-1.10442 -3.337,0.83728 -1.9523700000000002,1.95236 a147.51181,147.51181 0 0 1 49.41219,74.90273 a132.28485,132.28485 0 0 1 -5.94226,87.82165 a130.77561,130.77561 0 0 1 -23.73238,36.68861 a125.43167,125.43167 0 0 1 -36.88989,27.26079 c-29.54612,14.58764 -62.6173,19.10322 -94.51772,25.82066 c-30.07821,6.33371 -60.75968,15.3684 -84.87514,35.26941 a115.12231,115.12231 0 0 0 -8.58837,7.86241 c-1.25051,1.26489 0.70071,3.21841 1.95236,1.95236 z" fill="#ffff77" id="svg_18" class="" fill-opacity="1"/><path d="M92.84624,131.1176523730469 a179.10938,179.10938 0 0 1 105.2475,3.60459 c9.85656,3.38036 19.96636,7.30913 28.21223,13.84489 c7.09373,5.62256 13.32262,14.134 11.55053,23.69061 c-1.63354,8.8094 -9.7367,15.76792 -18.45788,17.04116 c-8.99477,1.31318 -17.19022,-4.16044 -21.31594,-11.9169 a22.99322,22.99322 0 0 1 1.66748,-24.696 c5.2142,-7.023 13.88316,-11.03364 22.40248,-12.1456 c9.73851,-1.27109 19.31666,1.59942 27.74,6.39919 c19.03751,10.84787 31.19467,29.75987 47.18264,44.17672 A79.31436,79.31436 0 0 0 323.548,207.4191423730469 a82.22179,82.22179 0 0 0 29.53985,4.46748 c21.03834,-0.5357000000000001 41.21178,-8.13562 58.39994,-20.05736 c17.24163,-11.95882 31.48233,-27.66 43.95059,-44.41684 c6.667,-8.96022 12.46166,-18.58788 19.43849,-27.31155 c6.86751,-8.587 15.36534,-16.22094 26.23165,-19.09556 a28.95183,28.95183 0 0 1 15.1266,-0.08356000000000002 a1.38171,1.38171 0 0 0 0.7340000000000001,-2.66243 c-10.56491,-2.88089 -21.67107,0.49121000000000004 -30.43008,6.6398 c-9.36918,6.57692 -16.08285,16.10965 -22.45189,25.4456 c-12.7247,18.6523 -26.42849,36.72842 -43.82228,51.31994 c-17.36589,14.56811 -38.26549,25.00734 -61.04862,27.09921 a82.88231,82.88231 0 0 1 -32.38843,-3.15574 c-10.95663,-3.44206 -20.45772,-9.65882 -28.856090000000002,-17.408 c-16.501,-15.22543 -29.33565,-35.21049 -49.98808,-45.40193 c-8.70487,-4.29563 -18.23107,-6.35656 -27.8776,-4.721 c-8.49366,1.4401000000000002 -16.84781,5.62828 -22.20267,12.50854 a25.43344,25.43344 0 0 0 -3.7335000000000003,24.80191 c3.0507,8.00993 9.857850000000001,14.92789 18.5025,16.50519 c8.7257,1.5920900000000002 17.8422,-2.43156 23.29072,-9.28058 a22.36437,22.36437 0 0 0 2.1325,-24.58275 c-4.48173,-8.6635 -13.22555,-14.65339 -21.74245,-18.88038 A162.28474,162.28474 0 0 0 182.86200000000002,127.37833237304687 a182.68269,182.68269 0 0 0 -72.47144,-2.85349 a186.93513,186.93513 0 0 0 -18.27835,3.93038 a1.38171,1.38171 0 0 0 0.7340000000000001,2.66243 z" fill="#ffff77" id="svg_19" class="" fill-opacity="1"/><path d="M380.91333999999995,305.2178423730469 c9.76864,-13.11805 19.75683,-27.03237 23.97363,-43.08148 a51.75575,51.75575 0 0 0 0.8998400000000002,-23.50089 a50.69534,50.69534 0 0 0 -8.34763,-18.88217 c-8.30229,-11.79275 -20.542650000000002,-20.55678 -33.56777,-26.47317 c-16.13042,-7.32692 -33.52539,-11.08387 -50.361,-16.36723 c-15.51858,-4.87 -31.42937,-11.2246 -43.022,-23.061 c-10.953,-11.18331 -17.15889,-28.01642 -11.04992,-43.15705 c5.54294,-13.73777 19.0512,-22.84807 32.53581,-27.65764 c16.533,-5.89684 34.24049,-6.95836 51.088,-11.632 c14.08485,-3.90725 28.49918,-10.56947 37.22009,-22.80211 c7.39058,-10.36661 9.763,-25.316 3.8554,-36.9026 a26.062,26.062 0 0 0 -5.72239,-7.44813 c-1.314,-1.1908 -3.27242,0.7560600000000001 -1.95236,1.95236 c9.96208,9.02817 10.08053,24.4745 4.46779,35.90866 c-6.59019,13.4254 -20.81936,21.073 -34.51537,25.41679 c-16.30161,5.17019 -33.55236,6.27373 -49.93278,11.1382 c-14.0002,4.15763 -27.695520000000002,11.612 -35.93418,24.07077 A37.33,37.33 0 0 0 254.23000000000002,122.8827823730469 a44.10711,44.10711 0 0 0 5.94915,21.877 c7.78852,13.82828 21.67039,22.77357 35.95725,28.80976 c30.037,12.6906 65.67009,14.62855 90.41687,37.89605 c10.62725,9.992 17.84345,23.2632 17.42677,38.12935 c-0.45958000000000004,16.397100000000002 -9.225,31.31548 -18.34175,44.41744 c-2.30709,3.31558 -4.69672,6.57245 -7.10907,9.81193 c-1.06186,1.42594 1.3337400000000001,2.8040000000000003 2.38409,1.3935600000000001 z" fill="#ffff77" id="svg_20" class="" fill-opacity="1"/><path d="M155.41289,7.014182373046879 a29.21923,29.21923 0 0 1 12.00353,24.19639 a28.87325,28.87325 0 0 1 -13.65048,23.63641 c-7.667730000000001,4.526 -18.4448,5.09553 -24.55045,-2.3004000000000002 a15.09471,15.09471 0 0 1 -3.51065,-10.77739 a11.83176,11.83176 0 0 1 6.11155,-9.04722 c7.74551,-4.41934 17.02888,-1.8175 24.18674,2.41707 c4.4305,2.62107 8.48462,5.80963 12.72082,8.72144 a72.69091,72.69091 0 0 0 12.899000000000001,7.12517 c18.0343,7.6177 39.19472,7.70829 56.97246,-0.7121500000000001 a67.82966,67.82966 0 0 0 34.726,-38.76064 a61.74476,61.74476 0 0 0 1.79816,-6.35232 c0.39315000000000005,-1.7300900000000001 -2.26821,-2.46876 -2.66243,-0.7340000000000001 c-4.14861,18.256 -16.82337,34.04228 -33.43111,42.56339 c-18.10246,9.288 -40.45293,9.02822 -58.75,0.3913800000000001 a86.37247,86.37247 0 0 1 -13.35809,-8.16172 c-4.31612,-3.0932 -8.62023,-6.28736 -13.44506,-8.5579 c-7.5842600000000004,-3.56913 -17.51122,-4.57358 -24.62347,0.7052200000000001 a14.48836,14.48836 0 0 0 -5.90569,10.40228 a17.54588,17.54588 0 0 0 3.534,11.72621 c5.91574,7.97994 16.56492,9.11 25.29981,5.42572 c9.18711,-3.875 15.80587,-12.6487 17.77024,-22.34462 a31.6887,31.6887 0 0 0 -12.74137,-31.94642 c-1.4449100000000001,-1.039 -2.82484,1.35491 -1.3935600000000001,2.3841 z" fill="#ffff77" id="svg_21" class="" fill-opacity="1"/><path d="M448.22344,304.68710237304686 a92.19229,92.19229 0 0 1 17.10453,-36.58 a96.70191,96.70191 0 0 1 30.78855,-26.21722 a89.25077,89.25077 0 0 1 21.3478,-8.16011 c1.72669,-0.41586000000000006 0.9955499999999999,-3.079 -0.7340000000000001,-2.66243 A94.82159,94.82159 0 0 0 479.63856999999996,249.55243237304688 a99.06958,99.06958 0 0 0 -26.165,32.1992 a92.13631,92.13631 0 0 0 -7.91251,22.20147 c-0.37324,1.73257 2.28782,2.4729 2.66243,0.7340000000000001 z" fill="#ffff77" id="svg_22" class="" fill-opacity="1"/><path d="M433.56329000000005,4.661792373046865 c-5.88672,0.05927000000000001 -10.85109,4.13393 -13.26207,9.329180000000001 c-2.73606,5.89573 -1.98766,12.3838 0.94518,18.06421 c6.8420000000000005,13.25172 21.78125,17.948 32.53824,27.1103 c4.9907900000000005,4.25089 9.34067,9.66005 10.4859,16.279 c1.11632,6.45192 -1.188,13.1011 -4.963,18.293 c-4.12188,5.6690000000000005 -10.33773,9.56649 -16.81317,12.02453 a64.43163,64.43163 0 0 1 -20.81522,4.17311 c-6.87892,0.19489000000000004 -14.1522,-1.00705 -19.849,-5.11072 a20.99107,20.99107 0 0 1 -8.62734,-14.51429 a14.09967,14.09967 0 0 1 6.377,-13.4186 a20.54192,20.54192 0 0 1 14.78175,-2.39878 c12.59,2.488 19.11177,14.9809 21.89578,26.4332 c3.54507,14.583 2.137,30.08621 7.58947,44.25643 a58.62679,58.62679 0 0 0 24.08382,28.82859 c12.57694,7.65022 26.1181,10.12636 40.38948,6.38938 a59.25359,59.25359 0 0 0 10.5537,-3.92616 c1.6020500000000002,-0.7668400000000002 0.203,-3.1483 -1.3935600000000001,-2.38409 c-14.18681,6.7907 -28.702,7.00756 -42.9793,0.31584000000000007 a55.83461,55.83461 0 0 1 -26.78749,-27.10209 c-6.46,-14.05953 -5.17565,-29.84611 -8.25078,-44.69683 c-2.47518,-11.95339 -8.48721,-25.2776 -20.76852,-29.77211 c-9.88294,-3.6168 -23.12863,-0.80933 -27.24276,9.83343 c-2.1506,5.56333 -0.90627,11.92462 2.0478,16.947 a25.861,25.861 0 0 0 14.76368,11.39413 c6.92649,2.2013 14.40043,2.01682 21.50475,0.8964500000000001 a60.47258,60.47258 0 0 0 20.41177,-6.7057 a34.4544,34.4544 0 0 0 14.19524,-14.51407 c2.9506300000000003,-6.0151 3.9001900000000003,-13.01567 1.6567200000000002,-19.42568 c-4.95679,-14.16246 -19.9476,-20.01013 -31.13889,-28.199 c-5.514,-4.03467 -10.690100000000001,-9.3344 -12.74466,-16.01258 a15.95264,15.95264 0 0 1 4.04035,-16.56431 a10.9765,10.9765 0 0 1 7.37518,-3.06175 a1.3813600000000001,1.3813600000000001 0 0 0 0,-2.76106 z" fill="#ffff77" id="svg_23" class="" fill-opacity="1"/><circle cx="378.2657470703125" cy="203.4864959716797" r="53.380428314208984" fill="#ffff77" id="svg_24" class="" fill-opacity="1"/><circle cx="392.071044921875" cy="62.67259979248047" r="21.168100357055664" fill="#ffff77" id="svg_25" class="" fill-opacity="1"/><circle cx="133.45205688476562" cy="78.31858825683594" r="21.168100357055664" fill="#ffff77" id="svg_26" class="" fill-opacity="1"/><polygon points="736.394 439.563 750.583 345.019 739.043 447.083 736.394 439.563" opacity="0.2" id="svg_27"/><circle cx="759.5827026367188" cy="19.01936912536621" r="16" fill="#2f2e41" id="svg_28"/><path d="M743.09607,15.102322373046889 a15.9874,15.9874 0 0 1 15.99242,-14.95425 c-0.3303900000000001,-0.041920000000000006 -0.6578100000000001,-0.09287000000000002 -0.9947,-0.11453000000000002 a16,16 0 1 0 -2.05313,31.93406 c0.3368900000000001,0.021660000000000006 0.6681400000000002,0.013000000000000003 1.00117,0.013790000000000004 A15.98739,15.98739 0 0 1 743.09607,15.102322373046889 z" fill="#2f2e41" id="svg_29"/><ellipse cx="719.5827026367188" cy="61.019371032714844" rx="5" ry="7" fill="#ffb8b8" id="svg_30"/><polygon points="709.583 192.019 687.407 265.497 714.583 184.633 709.583 192.019" opacity="0.2" id="svg_31"/></g></svg>